<svg id="Camada_2" data-name="Camada 2" xmlns="http://www.w3.org/2000/svg" xmlns:xlink="http://www.w3.org/1999/xlink" viewBox="0 0 1440 800"><defs><style>.cls-1{fill:none;}.cls-2{clip-path:url(#clip-path);}.cls-3{fill:#db3a3a;}</style><clipPath id="clip-path"><rect class="cls-1" y="1.05" width="1440" height="798.95"/></clipPath></defs><title>desktop</title><g class="cls-2"><circle class="cls-3" cx="1409.77" cy="29.72" r="58.47"/><circle class="cls-3" cx="1242.21" cy="34.73" r="43.24"/><circle class="cls-3" cx="1440" cy="226.92" r="19.2"/><circle class="cls-3" cx="1313.36" cy="145.27" r="8.71"/><circle class="cls-3" cx="1204.26" cy="19" r="8.71"/><circle class="cls-3" cx="1294.85" cy="127.7" r="8.71"/><circle class="cls-3" cx="1434.87" cy="206.51" r="8.71"/><circle class="cls-3" cx="1444.68" cy="166.33" r="18.51"/><circle class="cls-3" cx="1248.12" cy="77.97" r="12.62"/><circle class="cls-3" cx="1413.04" cy="153.71" r="12.62"/><circle class="cls-3" cx="1301.66" cy="87.75" r="22.4"/><circle class="cls-3" cx="1260.75" cy="-3.4" r="22.4"/><circle class="cls-3" cx="1361.94" cy="177.35" r="18.81"/><circle class="cls-3" cx="1366.7" cy="157.99" r="9.53"/><circle class="cls-3" cx="1369.9" cy="147.2" r="5"/><circle class="cls-3" cx="1320.74" cy="110.12" r="33.54"/><circle class="cls-3" cx="1384.91" cy="81.45" r="21.14"/><circle class="cls-3" cx="1356.42" cy="8.59" r="16.52"/><circle class="cls-3" cx="1437.37" cy="132.93" r="33.54"/><circle class="cls-3" cx="43.79" cy="785.92" r="58.47"/><circle class="cls-3" cx="211.36" cy="745.12" r="43.24"/><circle class="cls-3" cx="13.56" cy="588.72" r="19.2"/><circle class="cls-3" cx="109.57" cy="644.36" r="8.71"/><circle class="cls-3" cx="249.31" cy="760.85" r="8.71"/><circle class="cls-3" cx="128.09" cy="661.93" r="8.71"/><circle class="cls-3" cx="18.69" cy="609.13" r="8.71"/><circle class="cls-3" cx="8.89" cy="649.31" r="18.51"/><circle class="cls-3" cx="205.44" cy="701.88" r="12.62"/><circle class="cls-3" cx="40.52" cy="661.93" r="12.62"/><circle class="cls-3" cx="-1.06" cy="713.05" r="12.62"/><circle class="cls-3" cx="121.28" cy="701.88" r="22.4"/><circle class="cls-3" cx="192.82" cy="783.25" r="22.4"/><circle class="cls-3" cx="178.82" cy="653.06" r="18.81"/><circle class="cls-3" cx="102.19" cy="679.51" r="33.54"/><circle class="cls-3" cx="68.65" cy="734.19" r="21.14"/><circle class="cls-3" cx="97.14" cy="807.05" r="16.52"/><circle class="cls-3" cx="16.19" cy="682.71" r="33.54"/></g></svg>