<svg id="Layer_1" data-name="Layer 1" xmlns="http://www.w3.org/2000/svg" xmlns:xlink="http://www.w3.org/1999/xlink" viewBox="0 0 375 800"><defs><style>.cls-1{fill:none;}.cls-2{clip-path:url(#clip-path);}.cls-3{fill:#db3a3a;}</style><clipPath id="clip-path"><rect class="cls-1" x="-212.5" y="212.5" width="800" height="375" transform="translate(-212.5 587.5) rotate(-90)"/></clipPath></defs><title>Mobile</title><g class="cls-2"><circle class="cls-3" cx="13.46" cy="14.19" r="27.44"/><circle class="cls-3" cx="15.81" cy="92.84" r="20.29"/><circle class="cls-3" cx="106.02" r="9.01"/><circle class="cls-3" cx="67.69" cy="59.44" r="4.09"/><circle class="cls-3" cx="8.43" cy="110.65" r="4.09"/><circle class="cls-3" cx="59.45" cy="68.13" r="4.09"/><circle class="cls-3" cx="96.44" cy="2.41" r="4.09"/><circle class="cls-3" cx="77.58" cy="-2.2" r="8.69"/><circle class="cls-3" cx="36.1" cy="90.06" r="5.92"/><circle class="cls-3" cx="71.66" cy="12.65" r="5.92"/><circle class="cls-3" cx="40.69" cy="64.93" r="10.51"/><circle class="cls-3" cx="-2.09" cy="84.14" r="10.51"/><circle class="cls-3" cx="82.75" cy="36.64" r="8.83"/><circle class="cls-3" cx="73.66" cy="34.4" r="4.47"/><circle class="cls-3" cx="68.6" cy="32.9" r="2.35"/><circle class="cls-3" cx="51.19" cy="55.97" r="15.74"/><circle class="cls-3" cx="37.74" cy="25.86" r="9.92"/><circle class="cls-3" cx="3.54" cy="39.23" r="7.75"/><circle class="cls-3" cx="61.9" cy="1.23" r="15.74"/><circle class="cls-3" cx="368.39" cy="784.57" r="27.44"/><circle class="cls-3" cx="349.24" cy="705.92" r="20.29"/><circle class="cls-3" cx="275.83" cy="798.76" r="9.01"/><circle class="cls-3" cx="301.95" cy="753.7" r="4.09"/><circle class="cls-3" cx="356.62" cy="688.11" r="4.09"/><circle class="cls-3" cx="310.19" cy="745.01" r="4.09"/><circle class="cls-3" cx="285.41" cy="796.35" r="4.09"/><circle class="cls-3" cx="304.27" cy="800.96" r="8.69"/><circle class="cls-3" cx="328.95" cy="708.7" r="5.92"/><circle class="cls-3" cx="310.19" cy="786.11" r="5.92"/><circle class="cls-3" cx="334.19" cy="805.62" r="5.92"/><circle class="cls-3" cx="328.95" cy="748.21" r="10.51"/><circle class="cls-3" cx="367.14" cy="714.63" r="10.51"/><circle class="cls-3" cx="306.03" cy="721.19" r="8.83"/><circle class="cls-3" cx="318.45" cy="757.16" r="15.74"/><circle class="cls-3" cx="344.11" cy="772.9" r="9.92"/><circle class="cls-3" cx="378.31" cy="759.53" r="7.75"/><circle class="cls-3" cx="319.95" cy="797.53" r="15.74"/></g></svg>